<svg width="137" height="24" viewBox="0 0 137 24" fill="none" xmlns="http://www.w3.org/2000/svg">
<rect width="24" height="24" rx="4" fill="#6A4BFF"/>
<path d="M5 8C5 6.34315 6.34315 5 8 5C9.65685 5 11 6.34315 11 8V16C11 17.6569 9.65685 19 8 19H5V8Z" fill="white"/>
<path d="M13 8C13 6.34315 14.3431 5 16 5H19V16C19 17.6569 17.6569 19 16 19C14.3431 19 13 17.6569 13 16V8Z" fill="white"/>
<path d="M33.8804 19.5V5.3H39.0404C40.2004 5.3 41.2137 5.48667 42.0804 5.86C42.9604 6.23333 43.6937 6.74 44.2804 7.38C44.8671 8.02 45.3071 8.77333 45.6004 9.64C45.8937 10.4933 46.0404 11.4067 46.0404 12.38C46.0404 13.46 45.8737 14.44 45.5404 15.32C45.2204 16.1867 44.7537 16.9333 44.1404 17.56C43.5271 18.1733 42.7871 18.6533 41.9204 19C41.0671 19.3333 40.1071 19.5 39.0404 19.5H33.8804ZM43.2604 12.38C43.2604 11.7 43.1671 11.0733 42.9804 10.5C42.7937 9.92667 42.5204 9.43333 42.1604 9.02C41.8004 8.60667 41.3537 8.28667 40.8204 8.06C40.3004 7.83333 39.7071 7.72 39.0404 7.72H36.6404V17.08H39.0404C39.7204 17.08 40.3204 16.96 40.8404 16.72C41.3737 16.48 41.8137 16.1533 42.1604 15.74C42.5204 15.3133 42.7937 14.8133 42.9804 14.24C43.1671 13.6667 43.2604 13.0467 43.2604 12.38ZM50.7968 19.7C50.2901 19.7 49.8168 19.62 49.3768 19.46C48.9368 19.2867 48.5568 19.0533 48.2368 18.76C47.9168 18.4533 47.6635 18.1 47.4768 17.7C47.3035 17.3 47.2168 16.86 47.2168 16.38C47.2168 15.8867 47.3235 15.4333 47.5368 15.02C47.7635 14.5933 48.0701 14.2333 48.4568 13.94C48.8568 13.6467 49.3301 13.42 49.8768 13.26C50.4235 13.0867 51.0235 13 51.6768 13C52.1435 13 52.5968 13.04 53.0368 13.12C53.4901 13.2 53.8901 13.3133 54.2368 13.46V12.86C54.2368 12.1667 54.0368 11.6333 53.6368 11.26C53.2501 10.8867 52.6701 10.7 51.8968 10.7C51.3368 10.7 50.7901 10.8 50.2568 11C49.7235 11.2 49.1768 11.4933 48.6168 11.88L47.7968 10.18C49.1435 9.28667 50.5968 8.84 52.1568 8.84C53.6635 8.84 54.8301 9.21333 55.6568 9.96C56.4968 10.6933 56.9168 11.76 56.9168 13.16V16.42C56.9168 16.7 56.9635 16.9 57.0568 17.02C57.1635 17.14 57.3301 17.2067 57.5568 17.22V19.5C57.1035 19.5933 56.7101 19.64 56.3768 19.64C55.8701 19.64 55.4768 19.5267 55.1968 19.3C54.9301 19.0733 54.7635 18.7733 54.6968 18.4L54.6368 17.82C54.1701 18.4333 53.6035 18.9 52.9368 19.22C52.2701 19.54 51.5568 19.7 50.7968 19.7ZM51.5568 17.74C52.0101 17.74 52.4368 17.66 52.8368 17.5C53.2501 17.34 53.5701 17.1267 53.7968 16.86C54.0901 16.6333 54.2368 16.38 54.2368 16.1V14.9C53.9168 14.78 53.5701 14.6867 53.1968 14.62C52.8235 14.54 52.4635 14.5 52.1168 14.5C51.4235 14.5 50.8568 14.66 50.4168 14.98C49.9768 15.2867 49.7568 15.68 49.7568 16.16C49.7568 16.6133 49.9301 16.9933 50.2768 17.3C50.6235 17.5933 51.0501 17.74 51.5568 17.74ZM63.3812 19.7C62.5012 19.7 61.6412 19.56 60.8012 19.28C59.9612 19 59.2412 18.6 58.6412 18.08L59.6412 16.4C60.2812 16.8533 60.9012 17.2 61.5012 17.44C62.1145 17.6667 62.7212 17.78 63.3212 17.78C63.8545 17.78 64.2745 17.68 64.5812 17.48C64.8878 17.28 65.0412 16.9933 65.0412 16.62C65.0412 16.2467 64.8612 15.9733 64.5012 15.8C64.1412 15.6267 63.5545 15.4267 62.7412 15.2C62.0612 15.0133 61.4812 14.8333 61.0012 14.66C60.5212 14.4867 60.1345 14.2933 59.8412 14.08C59.5478 13.8533 59.3345 13.6 59.2012 13.32C59.0678 13.0267 59.0012 12.68 59.0012 12.28C59.0012 11.7467 59.1012 11.2667 59.3012 10.84C59.5145 10.4133 59.8078 10.0533 60.1812 9.76C60.5545 9.45333 60.9878 9.22 61.4812 9.06C61.9878 8.9 62.5345 8.82 63.1212 8.82C63.9078 8.82 64.6412 8.93333 65.3212 9.16C66.0145 9.38667 66.6478 9.75333 67.2212 10.26L66.1412 11.88C65.6078 11.48 65.0878 11.1867 64.5812 11C64.0878 10.8133 63.5945 10.72 63.1012 10.72C62.6478 10.72 62.2678 10.8133 61.9612 11C61.6545 11.1867 61.5012 11.4867 61.5012 11.9C61.5012 12.0867 61.5345 12.24 61.6012 12.36C61.6812 12.48 61.8012 12.5867 61.9612 12.68C62.1212 12.7733 62.3278 12.8667 62.5812 12.96C62.8478 13.04 63.1745 13.1267 63.5612 13.22C64.2812 13.4067 64.8945 13.5933 65.4012 13.78C65.9212 13.9667 66.3412 14.18 66.6612 14.42C66.9945 14.66 67.2345 14.94 67.3812 15.26C67.5412 15.5667 67.6212 15.94 67.6212 16.38C67.6212 17.4067 67.2412 18.22 66.4812 18.82C65.7212 19.4067 64.6878 19.7 63.3812 19.7ZM79.1026 19.5H76.4226V13.62C76.4226 12.7933 76.2692 12.1867 75.9626 11.8C75.6559 11.4 75.2226 11.2 74.6626 11.2C74.4226 11.2 74.1692 11.2533 73.9026 11.36C73.6359 11.4667 73.3826 11.62 73.1426 11.82C72.9026 12.0067 72.6826 12.2333 72.4826 12.5C72.2826 12.7667 72.1359 13.06 72.0426 13.38V19.5H69.3626V4.9H72.0426V10.96C72.4292 10.28 72.9492 9.76 73.6026 9.4C74.2692 9.02667 75.0026 8.84 75.8026 8.84C76.4826 8.84 77.0359 8.96 77.4626 9.2C77.8892 9.42667 78.2226 9.73333 78.4626 10.12C78.7026 10.5067 78.8692 10.9467 78.9626 11.44C79.0559 11.9333 79.1026 12.44 79.1026 12.96V19.5ZM87.3929 19.7C86.5929 19.7 85.8796 19.52 85.2529 19.16C84.6262 18.8 84.1329 18.3067 83.7729 17.68V19.5H81.4329V4.9H84.1129V10.86C84.4862 10.22 84.9729 9.72667 85.5729 9.38C86.1862 9.02 86.8996 8.84 87.7129 8.84C88.3929 8.84 89.0129 8.98667 89.5729 9.28C90.1329 9.57333 90.6129 9.96667 91.0129 10.46C91.4262 10.9533 91.7396 11.5333 91.9529 12.2C92.1796 12.8667 92.2929 13.5667 92.2929 14.3C92.2929 15.06 92.1662 15.7667 91.9129 16.42C91.6729 17.0733 91.3329 17.6467 90.8929 18.14C90.4529 18.62 89.9329 19 89.3329 19.28C88.7329 19.56 88.0862 19.7 87.3929 19.7ZM86.6529 17.42C87.0796 17.42 87.4729 17.34 87.8329 17.18C88.1929 17.0067 88.4996 16.78 88.7529 16.5C89.0062 16.22 89.1996 15.8933 89.3329 15.52C89.4796 15.1467 89.5529 14.7467 89.5529 14.32C89.5529 13.8933 89.4862 13.4867 89.3529 13.1C89.2196 12.7133 89.0262 12.3733 88.7729 12.08C88.5329 11.7867 88.2462 11.5533 87.9129 11.38C87.5796 11.2067 87.2129 11.12 86.8129 11.12C86.2129 11.12 85.6729 11.32 85.1929 11.72C84.7262 12.1067 84.3662 12.5867 84.1129 13.16V15.66C84.2062 15.9267 84.3396 16.1667 84.5129 16.38C84.6996 16.5933 84.9062 16.78 85.1329 16.94C85.3596 17.0867 85.6062 17.2067 85.8729 17.3C86.1396 17.38 86.3996 17.42 86.6529 17.42ZM98.9487 19.7C98.0953 19.7 97.3287 19.5533 96.6487 19.26C95.9687 18.9667 95.3887 18.5733 94.9087 18.08C94.442 17.5733 94.082 16.9933 93.8287 16.34C93.5753 15.6867 93.4487 15 93.4487 14.28C93.4487 13.5467 93.5753 12.8533 93.8287 12.2C94.082 11.5467 94.442 10.9733 94.9087 10.48C95.3887 9.97333 95.9687 9.57333 96.6487 9.28C97.3287 8.98667 98.0953 8.84 98.9487 8.84C99.802 8.84 100.562 8.98667 101.229 9.28C101.909 9.57333 102.482 9.97333 102.949 10.48C103.429 10.9733 103.795 11.5467 104.049 12.2C104.302 12.8533 104.429 13.5467 104.429 14.28C104.429 15 104.302 15.6867 104.049 16.34C103.795 16.9933 103.435 17.5733 102.969 18.08C102.502 18.5733 101.929 18.9667 101.249 19.26C100.569 19.5533 99.802 19.7 98.9487 19.7ZM96.2087 14.28C96.2087 14.7467 96.2753 15.1733 96.4087 15.56C96.5553 15.9333 96.7487 16.26 96.9887 16.54C97.242 16.82 97.5353 17.04 97.8687 17.2C98.202 17.3467 98.562 17.42 98.9487 17.42C99.3353 17.42 99.6953 17.3467 100.029 17.2C100.362 17.04 100.649 16.82 100.889 16.54C101.142 16.26 101.335 15.9267 101.469 15.54C101.615 15.1533 101.689 14.7267 101.689 14.26C101.689 13.8067 101.615 13.3867 101.469 13C101.335 12.6133 101.142 12.28 100.889 12C100.649 11.72 100.362 11.5067 100.029 11.36C99.6953 11.2 99.3353 11.12 98.9487 11.12C98.562 11.12 98.202 11.2 97.8687 11.36C97.5353 11.52 97.242 11.74 96.9887 12.02C96.7487 12.3 96.5553 12.6333 96.4087 13.02C96.2753 13.4067 96.2087 13.8267 96.2087 14.28ZM109.098 19.7C108.591 19.7 108.118 19.62 107.678 19.46C107.238 19.2867 106.858 19.0533 106.538 18.76C106.218 18.4533 105.964 18.1 105.778 17.7C105.604 17.3 105.518 16.86 105.518 16.38C105.518 15.8867 105.624 15.4333 105.838 15.02C106.064 14.5933 106.371 14.2333 106.758 13.94C107.158 13.6467 107.631 13.42 108.178 13.26C108.724 13.0867 109.324 13 109.978 13C110.444 13 110.898 13.04 111.338 13.12C111.791 13.2 112.191 13.3133 112.538 13.46V12.86C112.538 12.1667 112.338 11.6333 111.938 11.26C111.551 10.8867 110.971 10.7 110.198 10.7C109.638 10.7 109.091 10.8 108.558 11C108.024 11.2 107.478 11.4933 106.918 11.88L106.098 10.18C107.444 9.28667 108.898 8.84 110.458 8.84C111.964 8.84 113.131 9.21333 113.958 9.96C114.798 10.6933 115.218 11.76 115.218 13.16V16.42C115.218 16.7 115.264 16.9 115.358 17.02C115.464 17.14 115.631 17.2067 115.858 17.22V19.5C115.404 19.5933 115.011 19.64 114.678 19.64C114.171 19.64 113.778 19.5267 113.498 19.3C113.231 19.0733 113.064 18.7733 112.998 18.4L112.938 17.82C112.471 18.4333 111.904 18.9 111.238 19.22C110.571 19.54 109.858 19.7 109.098 19.7ZM109.858 17.74C110.311 17.74 110.738 17.66 111.138 17.5C111.551 17.34 111.871 17.1267 112.098 16.86C112.391 16.6333 112.538 16.38 112.538 16.1V14.9C112.218 14.78 111.871 14.6867 111.498 14.62C111.124 14.54 110.764 14.5 110.418 14.5C109.724 14.5 109.158 14.66 108.718 14.98C108.278 15.2867 108.058 15.68 108.058 16.16C108.058 16.6133 108.231 16.9933 108.578 17.3C108.924 17.5933 109.351 17.74 109.858 17.74ZM123.962 11.34C123.149 11.3533 122.422 11.5133 121.782 11.82C121.142 12.1133 120.682 12.56 120.402 13.16V19.5H117.722V9.02H120.182V11.26C120.369 10.9 120.589 10.58 120.842 10.3C121.095 10.0067 121.369 9.75333 121.662 9.54C121.955 9.32667 122.249 9.16667 122.542 9.06C122.849 8.94 123.142 8.88 123.422 8.88C123.569 8.88 123.675 8.88 123.742 8.88C123.822 8.88 123.895 8.88667 123.962 8.9V11.34ZM129.269 19.7C128.549 19.7 127.882 19.56 127.269 19.28C126.656 19 126.129 18.6133 125.689 18.12C125.249 17.6267 124.902 17.0533 124.649 16.4C124.409 15.7333 124.289 15.02 124.289 14.26C124.289 13.5 124.402 12.7933 124.629 12.14C124.869 11.4867 125.196 10.9133 125.609 10.42C126.022 9.92667 126.516 9.54 127.089 9.26C127.662 8.98 128.289 8.84 128.969 8.84C129.742 8.84 130.436 9.02667 131.049 9.4C131.676 9.77333 132.162 10.26 132.509 10.86V4.9H135.189V16.42C135.189 16.7 135.236 16.9 135.329 17.02C135.422 17.14 135.582 17.2067 135.809 17.22V19.5C135.342 19.5933 134.962 19.64 134.669 19.64C134.189 19.64 133.796 19.52 133.489 19.28C133.182 19.04 133.009 18.7267 132.969 18.34L132.909 17.68C132.522 18.3467 131.996 18.8533 131.329 19.2C130.676 19.5333 129.989 19.7 129.269 19.7ZM129.969 17.42C130.222 17.42 130.482 17.38 130.749 17.3C131.016 17.2067 131.262 17.08 131.489 16.92C131.716 16.76 131.916 16.5733 132.089 16.36C132.276 16.1467 132.416 15.9133 132.509 15.66V13.16C132.402 12.8667 132.249 12.6 132.049 12.36C131.862 12.1067 131.642 11.8933 131.389 11.72C131.149 11.5333 130.889 11.3867 130.609 11.28C130.342 11.1733 130.076 11.12 129.809 11.12C129.409 11.12 129.036 11.2067 128.689 11.38C128.356 11.5533 128.069 11.7933 127.829 12.1C127.589 12.3933 127.402 12.7333 127.269 13.12C127.136 13.5067 127.069 13.9067 127.069 14.32C127.069 14.76 127.142 15.1667 127.289 15.54C127.436 15.9133 127.636 16.24 127.889 16.52C128.142 16.8 128.442 17.02 128.789 17.18C129.149 17.34 129.542 17.42 129.969 17.42Z" fill="#6259E8"/>
</svg>
